<?xml version="1.0" encoding="utf-8"?>
<!-- Generator: Adobe Illustrator 27.4.1, SVG Export Plug-In . SVG Version: 6.00 Build 0)  -->
<svg version="1.1" id="Layer_5_copy_xA0_이미지_00000183232507009211697770000001318103439090313663_"
	 xmlns="http://www.w3.org/2000/svg" xmlns:xlink="http://www.w3.org/1999/xlink" x="0px" y="0px" viewBox="0 0 2709 966"
	 style="enable-background:new 0 0 2709 966;" xml:space="preserve">
<style type="text/css">
	.st0{fill:#FFBB02;}
	.st1{fill:#239DD6;}
</style>
<g>
	<g>
		<path class="st0" d="M129.63,782.52c7.34,53.8,39.13,83.14,88.85,83.14c30.97,0,52.98-10.6,68.47-35.05h117.38
			c-22.01,76.62-95.37,125.53-189.11,125.53C93.76,956.14,13.07,873,13.07,749.1c0-123.08,82.33-207.86,201.34-207.86
			c83.14,0,145.91,41.57,175.25,115.75c13.86,34.24,19.56,70.92,19.56,125.53H129.63z M290.21,701.01
			c-4.89-46.46-31.79-71.73-76.62-71.73s-74.18,25.27-83.14,71.73H290.21z"/>
		<path class="st0" d="M708.36,670.03c-4.89-29.34-28.53-44.83-66.84-44.83c-33.42,0-55.43,13.04-55.43,32.6
			c0,14.67,11.41,22.01,48.09,30.16l72.55,15.49c48.09,9.78,72.55,20.38,89.66,38.31c18.75,17.93,29.34,47.28,29.34,79.07
			c0,83.14-67.66,135.31-176.88,135.31s-176.88-51.35-183.4-138.57h108.41c6.52,37.49,30.97,54.61,77.44,54.61
			c36.68,0,60.32-14.67,60.32-38.31c0-18.75-13.04-28.53-44.02-35.87l-71.73-16.3c-86.4-18.75-119.82-50.54-119.82-113.3
			c0-79.07,62.76-127.16,167.92-127.16c101.08,0,162.21,45.65,172.81,128.79H708.36z"/>
		<path class="st0" d="M1019.73,497.23H903.98v-95.37h115.75V497.23z M1019.73,945.54H903.98v-393.7h115.75V945.54z"/>
		<path class="st1" d="M1609.87,945.54h-146.72L1298.5,699.38l-50.54,51.35v194.81h-119.82V401.86h119.82v200.52l183.4-200.52
			h160.58l-211.93,214.38L1609.87,945.54z"/>
		<path class="st1" d="M1779.4,945.54h-115.75v-393.7h115.75V945.54z"/>
		<path class="st1" d="M2253.8,945.54h-110.86v-42.39c-29.34,38.31-60.32,52.98-108.41,52.98c-103.52,0-172.81-82.33-172.81-207.04
			c0-125.53,70.1-208.67,176.07-208.67c42.39,0,72.55,12.23,100.26,40.76V401.86h115.75V945.54z M1975.84,748.28
			c0,69.29,32.6,114.12,83.14,114.12c49.72,0,83.14-45.65,83.14-112.49c0-70.1-32.61-115.75-83.14-115.75
			C2008.44,634.17,1975.84,679,1975.84,748.28z"/>
		<path class="st1" d="M2671.93,945.54h-348.06v-74.18l200.52-227.42h-181.77v-92.11h316.27v92.11l-189.92,209.49h202.97V945.54z"/>
	</g>
</g>
<polyline class="st0" points="1496.88,303.23 2048.42,41.34 1910.79,404.83 1796.66,374.61 1733.33,464 1638.69,339.41 "/>
</svg>
